# xmcd CD database file
#
# Track frame offsets:
#	150
#	24347
#	48605
#
# Disc length: 863 seconds
#
# Revision: 0
# Processed by: cddbd v1.5.1PL0 Copyright (c) Steve Scherf et al.
# Submitted via: CDex 1.51
#
DISCID=1d035d03
DTITLE=YMO - BE A SUPERMAN
DYEAR=1993
DGENRE=Techno
TTITLE0=BE A SUPERMAN
TTITLE1=TONG -POO (1993 LIVE VERSION)
TTITLE2=FIRECLACKER (1993 LIVE VERSION)
EXTD=YEAR: 1993
EXTT0=
EXTT1=
EXTT2=
PLAYORDER=
